<svg width="74" height="57" viewBox="0 0 74 57" fill="none" xmlns="http://www.w3.org/2000/svg">
<path fill-rule="evenodd" clip-rule="evenodd" d="M48.8765 25.0563C49.2304 21.5408 50.1742 18.7338 51.8173 16.2448C54.0208 12.9247 57.7159 9.82249 63.825 6.52502C64.217 6.33928 64.5698 6.06962 64.8621 5.73241C65.1544 5.39521 65.3801 4.99748 65.5255 4.56338C65.6709 4.12928 65.7329 3.66786 65.7079 3.20713C65.6828 2.74639 65.5711 2.29595 65.3797 1.88315C65.1882 1.47035 64.9209 1.10379 64.5941 0.805736C64.2672 0.507677 63.8875 0.284325 63.4782 0.149249C63.0688 0.0141731 62.6382 -0.0298073 62.2126 0.0199612C61.787 0.0697297 61.3752 0.212215 61.0022 0.438773C54.4717 3.95426 49.7402 7.66505 46.6772 12.2933C43.5552 16.9988 42.4007 22.2993 42.4007 28.4628L42.4007 48.9016C42.4007 51.0097 43.1776 53.0314 44.5603 54.522C45.943 56.0127 47.8184 56.8501 49.7739 56.8501L66.6268 56.8501C68.5823 56.8501 70.4577 56.0127 71.8405 54.522C73.2232 53.0314 74 51.0097 74 48.9016L74 33.0047C74 28.6172 70.6968 25.0563 66.6268 25.0563L48.8765 25.0563ZM6.74414 25.0563C7.09805 21.5408 8.04182 18.7338 9.68498 16.2448C11.8885 12.9247 15.5835 9.82249 21.6927 6.52502C22.0846 6.33928 22.4374 6.06962 22.7297 5.73241C23.0221 5.3952 23.2478 4.99748 23.3931 4.56338C23.5385 4.12928 23.6006 3.66786 23.5755 3.20712C23.5504 2.74639 23.4388 2.29595 23.2473 1.88315C23.0559 1.47035 22.7886 1.10379 22.4617 0.805732C22.1348 0.507673 21.7552 0.284321 21.3458 0.149245C20.9364 0.0141692 20.5059 -0.0298113 20.0802 0.0199572C19.6546 0.0697257 19.2428 0.212211 18.8698 0.438769C12.3393 3.95426 7.60785 7.66505 4.54483 12.2933C1.42282 16.9988 0.26839 22.2993 0.268389 28.4628L0.268387 48.9016C0.268387 51.0097 1.0452 53.0314 2.42794 54.522C3.81068 56.0127 5.68606 56.8501 7.64155 56.8501L24.4945 56.8501C26.45 56.8501 28.3254 56.0127 29.7081 54.522C31.0908 53.0314 31.8677 51.0097 31.8677 48.9016L31.8677 33.0047C31.8677 28.6172 28.5645 25.0563 24.4945 25.0563L6.74414 25.0563Z" fill="#00598F"/>
</svg>
